<?xml version="1.0" standalone="no"?>
<!DOCTYPE svg PUBLIC "-//W3C//DTD SVG 20010904//EN"
 "http://www.w3.org/TR/2001/REC-SVG-20010904/DTD/svg10.dtd">
<svg version="1.0" xmlns="http://www.w3.org/2000/svg"
 width="2688.000000pt" height="2688.000000pt" viewBox="0 0 2688.000000 2688.000000"
 preserveAspectRatio="xMidYMid meet">
<metadata>
Created by potrace 1.14, written by Peter Selinger 2001-2017
</metadata>
<g transform="translate(0.000000,2688.000000) scale(0.100000,-0.100000)"
fill="#000000" stroke="none">
<path d="M16707 16804 c-2 -2 -38 -6 -81 -9 -43 -3 -90 -7 -105 -10 -14 -2
-46 -6 -71 -9 -43 -6 -62 -9 -140 -22 -64 -11 -74 -13 -198 -44 -67 -16 -166
-44 -220 -62 -53 -17 -99 -32 -102 -33 -54 -10 -503 -214 -520 -236 -3 -3 -23
-16 -45 -28 -89 -47 -305 -191 -305 -203 0 -4 -5 -8 -11 -8 -13 0 -68 -43
-204 -161 -163 -140 -298 -282 -441 -459 -19 -25 -43 -54 -52 -66 -10 -11 -21
-28 -27 -37 -5 -9 -40 -60 -76 -114 -82 -123 -97 -146 -132 -208 -37 -66 -171
-339 -175 -356 -2 -7 -11 -31 -21 -54 -10 -22 -28 -69 -40 -105 -13 -36 -27
-74 -32 -85 -11 -25 -70 -232 -74 -260 -1 -11 -8 -38 -13 -60 -6 -22 -13 -52
-16 -68 -3 -15 -7 -35 -10 -45 -3 -9 -7 -38 -10 -64 -3 -26 -8 -58 -11 -70 -3
-13 -7 -43 -10 -68 -16 -157 -19 -190 -19 -232 -1 -27 -3 -48 -6 -48 -3 0 -5
-108 -4 -239 l0 -240 -73 -53 c-40 -29 -105 -77 -143 -106 -39 -28 -70 -49
-70 -45 0 5 -4 3 -8 -4 -4 -7 -86 -68 -182 -137 -96 -69 -179 -129 -185 -133
-20 -17 -260 -188 -286 -205 -15 -9 -35 -23 -46 -32 -50 -41 -114 -86 -122
-86 -5 0 -11 -3 -13 -8 -1 -4 -34 -30 -73 -57 -38 -27 -71 -53 -73 -57 -2 -4
-8 -8 -13 -8 -5 0 -32 -18 -60 -40 -28 -22 -54 -40 -58 -40 -5 0 -21 -11 -37
-25 -39 -35 -44 -38 -81 -60 -18 -11 -33 -23 -33 -27 0 -4 -4 -8 -9 -8 -6 0
-59 -36 -118 -80 -153 -112 -150 -110 -228 -159 -101 -63 -302 -171 -319 -171
-8 0 -16 -3 -18 -7 -2 -5 -41 -23 -88 -42 -47 -18 -94 -37 -105 -41 -23 -9
-59 -21 -62 -21 -2 0 -22 -7 -45 -15 -42 -15 -65 -21 -173 -44 -78 -17 -108
-22 -141 -24 -16 -1 -34 -5 -40 -8 -12 -7 -355 -3 -419 6 -74 10 -120 18 -275
51 -94 20 -323 111 -449 178 -304 162 -579 414 -767 702 -40 61 -53 84 -98
169 -14 26 -31 55 -37 62 -6 8 -9 14 -5 14 3 0 -5 23 -19 50 -14 28 -22 50
-18 50 5 0 4 4 -2 8 -11 8 -31 56 -46 112 -6 19 -13 42 -16 50 -9 22 -11 31
-37 135 -43 181 -49 231 -50 465 -1 220 4 273 50 490 2 14 9 39 15 56 5 17 11
40 13 50 6 26 54 160 78 214 52 118 172 337 198 360 3 3 19 25 35 50 16 25 37
52 45 60 8 8 28 32 43 52 29 40 165 179 232 238 248 219 638 412 943 466 12 2
34 6 50 9 29 6 115 17 147 19 11 1 25 4 30 7 13 7 333 3 410 -5 154 -17 445
-92 560 -145 22 -11 77 -36 123 -57 45 -21 82 -41 82 -46 0 -4 8 -8 19 -8 10
0 24 -7 31 -15 7 -8 19 -15 26 -15 8 0 14 -4 14 -10 0 -5 4 -10 10 -10 27 0
248 -168 340 -260 59 -58 67 -63 82 -50 7 6 81 59 163 118 83 59 162 115 175
125 14 10 66 47 115 82 50 35 144 103 210 150 66 48 181 130 256 184 l137 97
-47 54 c-84 98 -282 289 -374 362 -130 102 -189 145 -287 210 -63 42 -135 86
-160 99 -25 13 -47 27 -50 30 -11 13 -300 150 -395 188 -112 43 -217 80 -254
87 -14 3 -29 8 -35 12 -6 3 -16 7 -23 8 -6 1 -27 7 -45 13 -18 5 -44 12 -58
14 -14 2 -32 7 -40 10 -17 7 -158 36 -213 44 -44 6 -72 11 -72 13 0 1 -18 3
-40 6 -22 2 -58 7 -80 9 -164 19 -549 26 -690 11 -97 -9 -187 -21 -240 -31
-48 -8 -98 -17 -130 -22 -101 -16 -457 -120 -540 -157 -16 -8 -41 -17 -55 -21
-63 -18 -347 -160 -455 -226 -16 -11 -37 -22 -45 -26 -58 -27 -371 -254 -378
-274 -2 -5 -7 -9 -12 -9 -9 0 -65 -47 -122 -102 -21 -21 -40 -38 -42 -38 -2 0
-33 -30 -70 -67 -223 -228 -368 -414 -521 -667 -65 -109 -213 -398 -219 -429
-1 -7 -10 -30 -20 -52 -22 -51 -113 -322 -119 -355 -3 -14 -10 -37 -16 -52 -6
-16 -9 -28 -6 -28 2 0 -1 -15 -6 -32 -5 -18 -12 -46 -15 -63 -2 -16 -7 -37
-10 -46 -2 -9 -7 -32 -9 -50 -6 -38 -13 -74 -15 -74 -1 0 -3 -18 -5 -40 -1
-22 -6 -55 -9 -73 -9 -47 -15 -112 -22 -247 -12 -224 -6 -406 22 -620 4 -27 8
-61 10 -75 3 -23 10 -69 19 -115 2 -11 9 -42 15 -70 6 -27 13 -63 16 -80 19
-97 133 -445 169 -515 8 -16 13 -30 11 -30 -3 0 36 -80 85 -177 94 -188 168
-314 250 -426 27 -37 49 -72 49 -77 0 -6 3 -10 8 -10 4 0 23 -23 42 -50 19
-27 38 -50 43 -50 4 0 7 -4 7 -10 0 -5 10 -20 23 -33 12 -13 51 -57 87 -98 75
-85 227 -236 284 -283 21 -17 48 -40 60 -52 57 -57 374 -284 395 -284 6 0 11
-4 11 -10 0 -5 4 -10 10 -10 5 0 39 -18 76 -40 36 -23 132 -73 212 -111 172
-83 178 -85 292 -127 30 -11 64 -23 75 -28 11 -4 26 -8 33 -10 8 -1 21 -6 30
-10 9 -4 22 -8 27 -10 17 -5 119 -35 135 -39 12 -3 125 -31 138 -34 1 0 12 -3
25 -6 12 -3 33 -7 47 -9 14 -3 34 -7 45 -9 11 -3 43 -8 70 -12 28 -4 59 -9 70
-10 129 -19 167 -23 330 -31 137 -6 185 -7 195 -5 3 1 59 3 125 6 66 2 136 6
155 9 19 3 60 8 90 11 51 6 67 8 133 19 120 19 136 22 140 26 1 1 16 4 32 6
59 10 307 78 365 101 8 3 20 7 25 8 59 13 450 184 465 204 3 3 10 7 17 8 15 3
167 93 273 162 83 54 96 63 125 89 7 6 18 12 23 12 6 0 12 3 14 8 2 4 48 41
103 82 55 41 102 77 105 80 3 3 93 71 201 152 108 81 203 154 212 162 9 9 20
16 25 16 6 0 12 3 14 8 2 4 28 25 58 47 30 22 62 45 70 52 8 7 33 26 55 42 22
17 45 34 50 38 6 5 28 21 50 38 22 16 46 35 53 42 7 7 16 13 20 13 4 0 19 10
34 23 49 41 63 52 178 137 63 47 126 95 140 107 14 13 30 23 36 23 7 0 14 7
18 15 3 8 10 15 15 15 8 0 96 -141 110 -175 2 -5 7 -12 11 -15 3 -3 17 -23 30
-44 25 -41 187 -260 230 -310 129 -150 300 -319 445 -438 159 -132 154 -128
164 -128 5 0 11 -4 13 -9 4 -11 202 -145 248 -167 7 -4 41 -24 75 -44 33 -19
78 -44 100 -55 22 -11 43 -24 47 -30 4 -5 8 -7 8 -3 0 4 17 -2 37 -13 42 -24
226 -100 288 -119 22 -7 46 -17 54 -23 7 -6 19 -12 27 -14 18 -4 35 -9 54 -15
43 -15 138 -42 160 -45 13 -3 49 -13 80 -23 30 -10 69 -20 85 -23 17 -3 37 -8
45 -11 15 -6 69 -13 175 -22 33 -3 85 -9 115 -14 56 -9 634 -6 680 3 14 3 52
8 85 11 33 3 71 8 85 11 13 2 42 7 65 10 22 3 47 8 55 10 8 2 31 7 50 11 19 3
40 7 45 9 6 1 29 6 53 10 23 4 45 12 48 16 3 5 9 7 13 4 5 -2 39 5 77 16 38
11 77 22 87 24 30 7 168 56 277 98 140 55 399 187 535 272 94 59 144 93 290
199 11 8 99 74 195 145 96 72 185 138 196 146 12 9 93 69 180 134 88 65 242
180 344 255 102 75 196 145 210 156 14 11 81 61 150 112 69 51 128 97 132 103
4 5 8 6 8 2 0 -4 12 4 27 18 16 14 32 24 37 22 6 -2 10 -323 10 -808 l1 -804
745 0 745 0 2 1048 c1 577 3 1051 6 1053 3 3 287 -193 322 -223 6 -5 42 -31
81 -59 39 -27 187 -132 328 -234 141 -102 264 -189 273 -195 16 -10 45 -31 67
-50 7 -5 19 -14 29 -20 9 -5 132 -93 273 -195 142 -102 262 -187 268 -189 6
-2 16 -10 21 -16 8 -9 397 -289 569 -410 24 -16 54 -38 67 -48 64 -47 422
-303 437 -312 9 -5 21 -14 28 -20 6 -5 22 -17 34 -25 12 -8 28 -19 34 -25 6
-5 34 -26 61 -45 l50 -35 993 0 992 0 0 77 0 78 -37 24 c-21 13 -56 38 -78 55
-52 40 -52 40 -110 81 -28 19 -51 38 -53 42 -2 4 -8 8 -12 8 -7 0 -249 170
-295 208 -5 4 -39 28 -75 52 -35 25 -71 50 -80 57 -66 51 -112 83 -119 83 -5
0 -11 4 -13 8 -1 5 -25 25 -53 44 -88 62 -419 299 -435 311 -8 7 -44 33 -80
57 -36 25 -67 47 -70 50 -3 3 -21 17 -40 30 -19 13 -40 29 -46 35 -6 5 -32 23
-57 39 -26 17 -47 34 -47 38 0 4 -4 8 -10 8 -8 0 -147 96 -160 111 -3 3 -27
20 -55 39 -27 19 -52 36 -55 40 -3 3 -34 26 -70 50 -36 24 -70 48 -76 54 -12
11 -364 263 -392 281 -9 6 -44 31 -79 58 -34 26 -67 47 -72 47 -5 0 -11 4 -13
8 -1 4 -34 30 -73 57 -38 27 -74 53 -80 57 -5 5 -73 53 -150 109 -77 55 -148
106 -158 114 -9 8 -20 15 -23 15 -2 0 -10 5 -17 10 -17 14 -81 63 -103 78 -11
7 -75 53 -144 103 -69 49 -163 116 -210 149 -47 32 -92 65 -100 73 -8 8 -25
19 -37 26 -12 6 -27 17 -35 24 -7 7 -42 33 -78 57 -36 25 -71 50 -78 57 -7 7
-26 20 -42 30 -17 9 -30 21 -30 25 0 4 -6 8 -14 8 -8 0 -16 3 -18 8 -1 4 -28
24 -58 45 -102 70 -105 73 -89 89 24 23 119 88 129 88 5 0 13 6 17 13 4 8 22
22 38 33 17 10 35 22 40 27 17 13 111 81 135 97 13 8 35 25 50 38 15 12 32 22
38 22 6 0 12 3 14 8 3 8 220 167 228 167 3 0 16 10 30 23 13 12 27 22 32 22 4
0 16 8 26 18 10 9 54 42 98 72 43 30 84 58 89 63 8 6 271 195 348 249 10 7 72
51 137 98 65 47 128 92 140 100 12 8 37 26 55 40 38 28 121 87 155 110 12 8
34 24 48 35 15 11 69 50 122 87 52 37 106 75 119 85 42 33 116 84 143 101 16
9 28 20 28 25 0 4 6 7 14 7 8 0 16 4 18 8 2 4 25 23 53 42 27 19 54 38 60 43
58 43 149 109 188 135 26 17 53 36 60 42 6 6 64 48 127 92 63 45 117 85 118
89 2 5 7 9 12 9 7 0 203 137 300 210 21 16 235 169 280 200 8 5 85 60 170 122
85 61 178 127 205 146 28 19 59 43 71 53 11 11 23 19 27 19 3 0 44 28 91 63
47 34 103 75 126 90 l41 29 -3 81 -3 82 -980 1 c-799 0 -983 -2 -995 -13 -15
-13 -59 -45 -411 -293 -105 -74 -199 -142 -208 -150 -9 -8 -37 -28 -61 -45
-25 -16 -88 -61 -142 -100 -53 -38 -106 -77 -118 -85 -13 -8 -44 -31 -71 -50
-26 -19 -57 -42 -70 -50 -35 -24 -123 -88 -136 -100 -7 -5 -15 -10 -18 -10 -4
0 -13 -6 -20 -12 -28 -25 -42 -36 -81 -61 -39 -26 -210 -148 -229 -164 -32
-27 -117 -83 -125 -83 -5 0 -13 -6 -17 -13 -4 -7 -39 -35 -78 -62 -38 -27 -71
-53 -73 -57 -2 -4 -8 -8 -13 -8 -9 0 -41 -21 -88 -57 -82 -62 -113 -83 -120
-83 -5 0 -11 -4 -13 -8 -1 -4 -102 -78 -223 -164 -121 -86 -242 -173 -270
-193 -27 -20 -75 -54 -105 -75 -30 -22 -63 -45 -72 -52 -9 -7 -26 -20 -38 -28
-12 -8 -49 -34 -82 -58 -33 -24 -62 -41 -65 -39 -2 3 -4 478 -4 1055 0 796 -3
1051 -12 1054 -7 2 -343 4 -747 4 l-735 -1 -1 -1598 -1 -1598 -39 -26 c-40
-28 -120 -86 -141 -103 -7 -6 -14 -9 -16 -8 -1 2 -16 -9 -32 -25 -17 -15 -38
-30 -47 -33 -10 -3 -18 -10 -18 -15 0 -5 -6 -9 -14 -9 -8 0 -16 -4 -18 -9 -1
-4 -55 -45 -118 -89 -142 -100 -160 -114 -176 -129 -7 -7 -16 -13 -19 -13 -4
0 -32 -20 -64 -45 -31 -25 -62 -45 -68 -45 -6 0 -13 -4 -15 -9 -3 -7 -329
-245 -508 -370 -36 -25 -67 -48 -70 -51 -3 -3 -115 -84 -250 -180 -135 -96
-249 -179 -255 -183 -5 -4 -50 -37 -100 -73 -49 -35 -98 -71 -107 -78 -9 -8
-27 -20 -40 -27 -13 -6 -25 -15 -28 -18 -13 -15 -120 -91 -130 -91 -5 0 -10
-4 -10 -10 0 -5 -7 -10 -15 -10 -8 0 -15 -4 -15 -8 0 -5 -12 -15 -27 -23 -16
-7 -52 -29 -81 -47 -64 -40 -305 -163 -325 -166 -8 -1 -22 -8 -31 -15 -9 -7
-16 -11 -16 -7 0 4 -12 0 -27 -7 -51 -26 -246 -89 -316 -103 -10 -2 -26 -5
-35 -8 -9 -3 -35 -8 -57 -12 -22 -3 -43 -8 -47 -10 -11 -7 -144 -18 -225 -18
-39 -1 -69 -5 -65 -10 3 -5 0 -6 -7 -2 -6 4 -44 9 -84 11 -39 3 -88 6 -107 9
-19 3 -57 7 -85 11 -27 3 -59 9 -70 12 -11 3 -29 7 -40 9 -116 13 -511 159
-537 198 -4 6 -8 8 -8 4 0 -8 -69 33 -187 109 -84 54 -193 142 -193 156 0 5
-3 7 -6 4 -8 -7 -179 163 -234 232 -19 24 -40 49 -47 56 -57 60 -221 341 -274
470 -29 70 -61 159 -66 185 -2 13 -9 30 -15 37 -6 7 -8 13 -5 13 3 0 -1 20 -9
45 -7 25 -11 45 -8 45 3 0 1 8 -5 18 -5 9 -11 35 -15 57 -3 22 -8 51 -10 65
-16 91 -19 135 -20 305 -1 229 5 295 49 500 9 42 44 166 54 190 5 11 15 36 21
55 93 260 270 532 485 745 76 76 208 188 264 223 14 9 28 19 31 23 12 14 169
104 258 147 139 68 364 149 440 158 15 2 45 7 67 13 43 10 103 19 205 30 76 9
342 6 415 -3 28 -4 66 -9 85 -12 20 -2 47 -7 60 -10 14 -3 34 -7 45 -9 45 -8
74 -16 155 -40 47 -14 92 -27 100 -29 40 -11 117 -44 255 -111 172 -84 354
-212 514 -360 29 -27 58 -49 63 -47 15 4 142 95 146 104 2 5 10 8 17 8 7 0 15
4 17 8 2 4 25 23 53 42 27 19 54 39 60 43 5 5 73 53 150 108 77 55 149 106
160 115 11 8 67 49 125 90 58 41 113 81 123 89 9 8 20 15 23 15 3 0 22 13 42
29 20 16 62 47 94 69 l56 41 -46 52 c-70 78 -219 226 -291 289 -35 30 -68 60
-75 66 -13 12 -184 142 -216 164 -12 8 -33 23 -45 33 -13 9 -28 17 -34 17 -6
0 -11 3 -11 8 0 6 -56 44 -70 47 -3 0 -25 13 -48 29 -79 50 -305 163 -422 211
-63 26 -124 51 -135 56 -23 10 -178 59 -280 88 -77 22 -228 56 -289 66 -21 3
-48 8 -60 10 -24 6 -65 11 -151 20 -33 3 -80 8 -105 11 -52 6 -497 13 -503 8z"/>
<path d="M4 16631 c-2 -2 -4 -337 -4 -743 l0 -738 3213 2 3212 3 0 740 0 740
-3208 0 c-1765 0 -3211 -2 -3213 -4z"/>
<path d="M0 10982 l0 -748 3210 0 c2891 0 3210 2 3214 16 3 8 4 345 4 748 l0
732 -3214 0 -3214 0 0 -748z"/>
</g>
</svg>
